<svg width="24" height="24" viewBox="0 0 24 24" fill="none" xmlns="http://www.w3.org/2000/svg">
<path fill-rule="evenodd" clip-rule="evenodd" d="M6.55261 14.6727C8.79491 16.915 12.4304 16.915 14.6727 14.6727C16.915 12.4304 16.915 8.79491 14.6727 6.55261C12.4304 4.31031 8.79491 4.31031 6.55261 6.55261C4.31031 8.79491 4.31031 12.4304 6.55261 14.6727ZM4.52259 16.7027C7.88604 20.0662 13.3393 20.0662 16.7027 16.7027C20.0662 13.3393 20.0662 7.88604 16.7027 4.52259C13.3393 1.15914 7.88604 1.15914 4.52259 4.52259C1.15914 7.88604 1.15914 13.3393 4.52259 16.7027Z" fill="#E3E3E3"/>
<path d="M14.6727 14.6727C15.4201 13.9253 16.632 13.9253 17.3794 14.6727L21.4394 18.7327C22.1869 19.4802 22.1869 20.692 21.4394 21.4394C20.692 22.1869 19.4802 22.1869 18.7327 21.4394L14.6727 17.3794C13.9253 16.632 13.9253 15.4201 14.6727 14.6727Z" fill="#E3E3E3"/>
</svg>
