<svg width="166" height="48" viewBox="0 0 166 48" fill="none" xmlns="http://www.w3.org/2000/svg">
<path fill-rule="evenodd" clip-rule="evenodd" d="M31.7578 1.80027C31.7578 0.806007 30.9519 0 29.9578 0H17.7714C16.7773 0 15.9714 0.806006 15.9714 1.80027V5.28607C15.9714 5.58452 15.7511 5.83668 15.457 5.88737C6.67836 7.40077 0 15.0529 0 24.2651C0 33.4778 6.67901 41.1302 15.4583 42.6431C15.7525 42.6938 15.9728 42.946 15.9727 43.2446L15.9714 48H21.2302V6.4744C21.2302 5.81156 21.7675 5.27422 22.4302 5.27422H25.299C25.9617 5.27422 26.499 5.81155 26.499 6.47439V48H31.7578V43.2444C31.7578 42.9459 31.9779 42.6938 32.272 42.6432C41.0615 41.1306 48 33.478 48 24.2651C48 14.9615 41.1884 7.24906 32.281 5.84414C31.9829 5.79712 31.7578 5.54322 31.7578 5.24143V1.80027ZM6.45396 24.0873C6.45396 18.3011 10.136 13.3979 15.2256 11.713C15.5989 11.5894 15.9714 11.8764 15.9714 12.2697V35.9049C15.9714 36.2982 15.5989 36.5853 15.2256 36.4617C10.136 34.7767 6.45396 29.8735 6.45396 24.0873ZM31.7578 12.184C31.7578 11.7964 32.1205 11.5102 32.4912 11.6231C37.7269 13.2174 41.546 18.1945 41.546 24.0874C41.546 29.9803 37.7269 34.9574 32.4912 36.5517C32.1205 36.6646 31.7578 36.3784 31.7578 35.9908V12.184Z" fill="#FEBA00"/>
<path d="M85.412 16.058C85.412 17.346 84.9827 18.368 84.124 19.124C83.2653 19.8707 82.0147 20.3 80.372 20.412V21.504H77.348V20.398C75.696 20.258 74.4407 19.8193 73.582 19.082C72.7327 18.3447 72.308 17.3367 72.308 16.058C72.308 14.7793 72.7327 13.776 73.582 13.048C74.4407 12.3107 75.696 11.872 77.348 11.732V10.71H80.372V11.732C82.024 11.8533 83.2747 12.2873 84.124 13.034C84.9827 13.7713 85.412 14.7793 85.412 16.058ZM80.372 17.836C81.0253 17.7427 81.4967 17.556 81.786 17.276C82.0753 16.9867 82.22 16.576 82.22 16.044C82.22 15.5213 82.0707 15.12 81.772 14.84C81.4827 14.56 81.016 14.3733 80.372 14.28V17.836ZM75.5 16.058C75.5 16.5713 75.6493 16.968 75.948 17.248C76.256 17.528 76.7227 17.7193 77.348 17.822V14.294C76.6853 14.3873 76.2093 14.574 75.92 14.854C75.64 15.1247 75.5 15.526 75.5 16.058ZM95.6138 19.292H91.8898L91.2318 21H87.8718L92.1558 11.2H95.4038L99.6878 21H96.2718L95.6138 19.292ZM94.7038 16.912L93.7518 14.448L92.7998 16.912H94.7038ZM102.832 11.2H111.33V13.692H106.08V14.826H108.418C109.613 14.826 110.528 15.0827 111.162 15.596C111.806 16.1 112.128 16.8327 112.128 17.794C112.128 18.7927 111.764 19.5767 111.036 20.146C110.308 20.7153 109.296 21 107.998 21H102.832V11.2ZM107.774 18.69C108.101 18.69 108.353 18.62 108.53 18.48C108.717 18.34 108.81 18.1393 108.81 17.878C108.81 17.374 108.465 17.122 107.774 17.122H106.08V18.69H107.774ZM120.222 11.2C121.127 11.2 121.916 11.3493 122.588 11.648C123.26 11.9467 123.778 12.376 124.142 12.936C124.506 13.496 124.688 14.1493 124.688 14.896C124.688 15.6427 124.506 16.296 124.142 16.856C123.778 17.416 123.26 17.8453 122.588 18.144C121.916 18.4427 121.127 18.592 120.222 18.592H118.808V21H115.504V11.2H120.222ZM120.012 16.044C120.46 16.044 120.796 15.946 121.02 15.75C121.244 15.5447 121.356 15.26 121.356 14.896C121.356 14.532 121.244 14.252 121.02 14.056C120.796 13.8507 120.46 13.748 120.012 13.748H118.808V16.044H120.012ZM127.93 11.2H131.178V16.296L134.552 11.2H137.66V21H134.412V15.918L131.052 21H127.93V11.2ZM148.486 15.96L151.384 21H147.66L145.784 17.458H144.86V21H141.556V11.2H144.86V14.854H145.868L147.954 11.2H151.398L148.486 15.96ZM160.941 19.292H157.217L156.559 21H153.199L157.483 11.2H160.731L165.015 21H161.599L160.941 19.292ZM160.031 16.912L159.079 14.448L158.127 16.912H160.031ZM83.858 35.438V39.918H80.834V38H75.262V39.918H72.238V35.438H72.518C73.0873 35.438 73.4887 35.0787 73.722 34.36C73.9553 33.6413 74.1047 32.582 74.17 31.182L74.282 28.2H82.57V35.438H83.858ZM77.04 31.462C77.0027 32.4047 76.928 33.2073 76.816 33.87C76.704 34.5233 76.5313 35.046 76.298 35.438H79.322V30.762H77.068L77.04 31.462ZM95.3556 35.508V38H87.2076V28.2H95.1736V30.692H90.4556V31.84H94.5996V34.22H90.4556V35.508H95.3556ZM107.28 30.762H104.41V38H101.162V30.762H98.2919V28.2H107.28V30.762ZM110.609 28.2H113.857V33.296L117.231 28.2H120.339V38H117.091V32.918L113.731 38H110.609V28.2Z" fill="#FEBA00"/>
</svg>
